<?xml version="1.0" encoding="UTF-8" standalone="no"?><!DOCTYPE svg PUBLIC "-//W3C//DTD SVG 1.1//EN" "http://www.w3.org/Graphics/SVG/1.1/DTD/svg11.dtd"><svg width="100%" height="100%" viewBox="0 0 859 589" version="1.1" xmlns="http://www.w3.org/2000/svg" xmlns:xlink="http://www.w3.org/1999/xlink" xml:space="preserve" xmlns:serif="http://www.serif.com/" style="fill-rule:evenodd;clip-rule:evenodd;stroke-linejoin:round;stroke-miterlimit:2;"><g id="layer1"><g id="g4253"><path id="path19" d="M546.595,88.317c-4.45,-10.576 -11.275,-19.968 -19.797,-27.78c-17.385,-15.964 -42.521,-26.062 -65.575,-30.053c-21.528,-3.762 -42.217,-2.21 -63.864,-2.016c-16.56,0.089 -31.423,-1.233 -47.014,-7.134c-3.107,-1.135 -6.213,-2.497 -9.263,-3.858c-6.947,-3.175 -13.781,-6.633 -20.671,-10.034c-6.157,-3.005 -13.273,-6.576 -20.11,-7.434c-7.572,-0.972 -15.093,1.617 -19.963,7.657c-3.624,4.573 -4.875,9.545 -4.543,14.575c-7.85,-4.137 -16.438,-6.015 -24.754,-1.167c-3.394,1.974 -6.111,4.795 -7.925,8.24c-5.894,11.183 -0.885,25.32 3.677,36.065c1.183,2.828 2.479,5.486 3.888,7.975c-3.337,1.578 -6.336,4.06 -8.659,7.674c-5.438,8.527 -3.701,18.477 2.392,26.116c2.651,3.395 5.925,6.226 9.256,8.83c7.339,5.72 15.583,10.649 23.829,14.9c2.203,1.134 4.462,2.211 6.721,3.288c18.187,8.392 36.775,12.715 56.496,15.797c4.238,0.684 8.476,1.312 12.771,1.94c-36.434,23.515 -70.781,50.593 -102.927,79.54c-8.489,7.674 -16.922,15.405 -24.621,23.702c-3.94,-11.536 -9.632,-22.396 -16.965,-32.354c-16.188,-21.954 -39.673,-40.188 -61.296,-56.611c-20.268,-15.46 -41.892,-30.526 -59.669,-48.808c-7.449,-7.698 -14.106,-16.129 -21.215,-24.109c-8.295,-9.281 -18.455,-18.565 -32.081,-15.251c-1.357,0.337 -2.657,0.787 -3.902,1.351c-11.594,5.126 -15.399,17.611 -17.055,29.139c-1.484,9.945 -1.613,20.231 -1.345,30.292c0.052,2.996 0.217,5.991 0.382,8.987c0.828,13.34 2.673,27.077 6.384,40.138c-3.165,0.165 -6.332,1.121 -9.5,3.095c-7.467,4.736 -10.362,12.928 -9.244,21.464c1.899,15.15 12.89,35.796 22.141,47.848c12.523,16.409 29.854,30.226 47.246,41.16c-2.828,1.521 -5.657,3.043 -8.429,4.735c-2.658,1.635 -5.261,3.327 -7.807,5.188c-15.956,11.619 -28.02,28.67 -34.264,47.425c-2.385,7.175 -4.092,15.029 -4.329,22.658c-0.298,10.4 3.077,20.861 12.849,25.001c-2.669,8.417 -4.66,17.062 -5.86,25.934c-2.628,18.76 -2.543,38.034 -1.893,56.912c0.273,6.5 0.433,13 1.441,19.445c1.567,10.571 6.13,20.356 17.26,23.368c5.028,1.364 10.342,0.807 15.036,-1.504c7.24,-3.493 12.451,-11.172 17.265,-17.382c5.662,-7.283 11.607,-14.226 18.343,-20.603c6.735,-6.376 14.034,-12.187 21.39,-17.885c8.714,-6.769 17.541,-13.425 26.199,-20.364c6.281,-4.965 12.449,-10.099 18.448,-15.459c19.469,-17.492 37.02,-37.87 51.917,-59.382c5.89,-8.526 10.65,-16.544 14.393,-25.299c17.312,26.985 40.049,54.092 62.57,74.302c29.182,26.212 63.855,46.215 100.119,60.907c-8.256,2.418 -14.989,7.495 -16.36,17.384c-0.057,0.396 -0.114,0.791 -0.115,1.187c-1.582,-0.059 -3.108,-0.118 -4.691,-0.177c-2.543,-0.06 -5.03,-0.177 -7.573,-0.011c-9.553,0.438 -18.036,4.156 -21.385,13.816c-2.725,7.908 -0.249,15.429 5.169,20.75c-1.529,2.258 -2.607,4.913 -3.121,8.134c-1.369,8.419 2.746,16.169 9.804,20.701c8.978,5.721 26.211,9.76 36.833,12.206c4.576,1.024 9.209,1.992 13.899,2.79c19.721,3.364 35.321,2.596 54.546,-3.084c21.883,-6.411 45.242,-17.624 61.656,-33.708c9.509,-9.311 17.213,-20.773 22.826,-32.86c32.445,-1.761 64.954,-8.721 95.097,-20.884c4.807,-1.915 9.558,-3.943 14.252,-6.083c10.915,-4.958 21.549,-10.538 31.901,-16.513c28.793,-16.574 56.291,-36.316 81.531,-57.925c11.035,-9.422 21.619,-19.411 31.751,-29.852c5.548,-5.7 10.813,-11.796 16.755,-16.987c2.943,-2.596 6.111,-4.626 9.505,-6.599c5.205,-3.044 9.617,-5.694 13.354,-10.549c7.929,-10.445 8.568,-22.313 3.045,-32.834c5.769,-2.704 11.2,-6.257 15.389,-10.659c6.34,-6.717 9.517,-14.907 10.209,-24.006c0.633,-8.025 -1.109,-14.527 -6.865,-20.357c-5.193,-5.151 -12.139,-8.552 -19.43,-8.507c-1.186,-1.075 -2.371,-2.377 -3.161,-3.169c-8.183,-8.547 -15.686,-17.771 -23.586,-26.599c-12.47,-13.81 -25.45,-27.054 -39.335,-39.453c-35.053,-31.137 -78.192,-59.518 -121.742,-77.047c-31.067,-12.536 -64.459,-19.82 -98.031,-20.266Z" style="fill:#fff;"/><path id="path21" d="M221.05,274.349c-0.169,-0.961 -0.337,-1.979 -0.561,-2.996c-3.312,-15.604 -9.79,-29.97 -19.266,-42.871c-15.286,-20.821 -38.884,-39.056 -59.378,-54.685c-20.437,-15.573 -42.795,-31.319 -60.741,-49.771c-7.562,-7.811 -14.219,-16.242 -21.441,-24.335c-5.586,-6.225 -13.374,-14.602 -22.703,-12.355c-0.735,0.225 -1.526,0.45 -2.205,0.788c-8.031,3.549 -10.364,13.945 -11.506,21.743c-1.37,9.324 -1.498,19.271 -1.229,28.654c0.052,2.882 0.161,5.765 0.383,8.648c1.157,19.614 4.687,40.588 13.874,58.122c-2.259,-1.473 -4.461,-3.002 -6.776,-4.475c-4.517,-2.833 -9.544,-4.875 -14.693,-1.661c-4.299,2.707 -5.436,7.396 -4.878,12.145c1.676,13.341 12.273,32.743 20.283,43.211c11.789,15.503 28.669,28.754 45.045,39.008c4.348,2.72 8.809,5.27 13.213,7.989c0.283,0.17 0.678,0.453 1.186,0.737c-1.81,0.958 -3.62,1.859 -4.638,2.31c-6.278,3.156 -12.613,6.199 -18.666,9.863c-2.432,1.466 -4.809,3.045 -7.072,4.737c-14.371,10.492 -25.246,25.849 -30.81,42.684c-2.1,6.27 -3.637,13.333 -3.873,19.889c-0.179,6.725 1.335,14.81 9.075,16.63c1.469,0.341 2.995,0.343 4.465,0.063c1.244,-0.281 2.375,-0.675 3.393,-1.295c-4.878,11.692 -8.23,23.556 -10.058,36.61c-2.513,18.026 -2.372,37.13 -1.777,55.273c0.217,6.048 0.434,12.379 1.329,18.371c0.951,6.445 3.145,13.569 10.264,15.501c2.825,0.739 5.708,0.405 8.366,-0.891c5.147,-2.48 10.358,-10.102 13.869,-14.618c6.002,-7.735 12.174,-14.96 19.305,-21.675c6.905,-6.546 14.544,-12.639 22.07,-18.506c8.714,-6.769 17.484,-13.426 26.142,-20.252c6.111,-4.908 12.166,-9.929 17.996,-15.12c18.846,-16.928 36.057,-36.911 50.444,-57.745c8.779,-12.704 14.73,-23.773 18.596,-38.745c0.284,-1.13 0.568,-2.26 0.853,-3.446c0.057,-0.283 0.114,-0.622 0.171,-0.904c17.417,31.903 45.625,67.043 71.702,90.481c29.238,26.324 64.364,46.158 100.91,60.512c6.044,2.383 12.202,4.653 18.359,6.696c6.892,2.328 13.841,4.486 20.846,6.418c-5.37,0.444 -10.739,0.662 -16.335,0.88c-1.752,0.111 -3.504,0.164 -5.2,0.275c-5.426,0.218 -10.909,0.492 -16.223,1.219c-6.558,0.838 -14.473,2.748 -15.559,10.716c-0.457,3.277 0.725,6.501 2.983,8.878c0.338,0.34 0.733,0.679 1.128,1.076c-6.216,-0.179 -12.433,-0.471 -18.65,-0.65c-6.895,-0.18 -16.728,-0.929 -19.623,7.375c-1.987,5.762 1.341,10.515 6.141,13.235c2.089,1.19 4.405,2.098 6.665,3.005c1.129,0.398 2.203,0.795 3.333,1.192c-5.993,0.839 -12.552,2.638 -13.693,9.814c-0.798,4.69 1.683,8.65 5.466,11.03c7.341,4.702 25.195,8.967 33.783,10.958c4.463,1.024 8.927,1.935 13.391,2.676c18.477,3.136 32.212,2.478 50.25,-2.808c20.243,-5.961 42.414,-16.441 57.64,-31.339c9.226,-9.03 16.59,-20.323 21.751,-32.128c0.51,-1.073 0.964,-2.146 1.417,-3.219c33.405,-1.138 67.044,-7.927 97.866,-20.428c4.976,-1.971 9.048,-3.717 13.912,-5.971c10.577,-4.788 20.928,-10.255 31.053,-16.062c28.058,-16.123 55.499,-35.864 80.06,-56.909c10.865,-9.253 21.166,-19.016 31.129,-29.231c5.604,-5.757 11.322,-12.248 17.321,-17.552c3.452,-3.047 7.016,-5.359 10.976,-7.671c3.96,-2.311 7.75,-4.397 10.581,-8.123c7.135,-9.315 5.794,-19.377 -1.598,-27.923c-1.185,-1.358 -2.483,-2.49 -3.838,-3.51c0.17,-0.056 0.34,-0.112 0.453,-0.112c8.368,-2.192 18.039,-6.36 24.039,-12.681c4.868,-5.136 7.138,-11.237 7.657,-18.132c0.403,-5.199 -0.382,-9.043 -4.107,-12.779c-3.781,-3.793 -9.034,-6.344 -14.461,-5.617c-0.395,0.056 -0.734,0.112 -1.074,0.168c-2.146,-1.247 -5.927,-5.039 -7.225,-6.397c-8.182,-8.547 -15.855,-17.997 -23.811,-26.826c-12.188,-13.526 -24.886,-26.544 -38.546,-38.66c-33.867,-30.118 -76.666,-58.668 -118.918,-75.347c-31.857,-13.16 -66.55,-20.106 -101.141,-19.536c-3.713,-11.761 -10.536,-22.058 -19.624,-30.38c-15.973,-14.606 -39.471,-23.966 -60.717,-27.671c-21.02,-3.649 -41.03,-2.039 -62.169,-1.845c-17.804,0.144 -33.57,-1.349 -50.46,-7.704c-3.276,-1.305 -6.553,-2.667 -9.772,-4.141c-7.117,-3.175 -14.007,-6.746 -20.954,-10.148c-4.8,-2.324 -11.803,-5.895 -17.115,-6.525c-4.238,-0.571 -8.479,0.666 -11.254,4.109c-4.586,5.758 -2.11,12.771 1.33,18.315c2.762,4.412 6.43,8.713 10.155,12.449c5.418,5.321 11.458,9.851 18.009,13.591c-4.633,-1.307 -9.152,-3.009 -13.388,-4.937c-7.229,-3.345 -11.689,-7.025 -17.786,-11.895c-7.339,-5.833 -20.603,-17.439 -30.277,-11.801c-10.804,6.314 -4.047,23.336 -0.273,32.216c3.266,7.578 6.818,13.518 12.971,18.953c-6.556,-0.519 -14.525,-0.53 -18.49,5.624c-3.173,5.026 -1.655,10.68 1.843,14.981c2.087,2.716 4.909,5.15 7.619,7.246c6.831,5.266 14.737,9.969 22.361,13.936c2.09,1.077 4.18,2.098 6.326,3.062c17.509,8.108 35.024,12.09 53.954,15.057c12.713,2.054 25.428,3.599 38.028,6.274c-1.471,0.846 -2.942,1.691 -4.356,2.537c-4.016,2.368 -7.976,4.849 -11.936,7.33c-37.791,23.908 -73.835,52.171 -106.944,81.964c-8.659,7.787 -17.714,16.195 -25.753,25l-10.189,10.78Z"/><path id="path25" d="M635.332,125.582c-35.982,-14.24 -72.089,-20.341 -110.979,-17.29c-42.451,3.385 -88.253,17.617 -135.487,44.563c-47.29,26.89 -96.012,66.381 -125.441,92.845c-29.373,26.464 -39.397,39.901 -42.184,51.822c-2.73,11.978 1.776,22.441 14.633,42.468c12.8,20.084 33.951,49.675 61.326,74.301c27.376,24.627 61.032,44.232 98.031,58.756c36.942,14.524 77.227,23.909 118.145,24.761c35.889,0.731 72.24,-5.036 108.49,-19.112l0,-0.057c-20.102,-51.236 -29.345,-107.035 -29.264,-161.972c0.097,-65.336 13.479,-132.461 42.73,-191.085Z" style="fill:#ec4038;"/><path id="path27" d="M645.16,129.666c39.199,17.127 78.554,43.806 108.413,70.358c29.916,26.552 50.337,52.976 61.849,64.976c11.456,11.942 13.946,9.459 16.49,9.124c2.488,-0.336 4.972,1.477 6.326,2.835c1.355,1.359 1.579,2.263 1.349,5.258c-0.23,2.939 -0.916,7.912 -4.992,12.258c-4.132,4.289 -11.655,7.952 -19.457,9.975c-7.86,2.023 -16.056,2.463 -25.041,1.545c-8.985,-0.917 -18.816,-3.193 -22.096,-2.18c-3.279,1.012 -0.121,5.369 5.584,7.864c5.648,2.495 13.843,3.186 21.471,4.497c7.628,1.255 14.69,3.074 18.527,7.488c3.893,4.471 4.561,11.537 1.277,15.827c-3.341,4.348 -10.635,5.919 -20.312,14.439c-9.678,8.52 -21.739,23.989 -48.281,46.67c-26.597,22.738 -67.562,52.746 -108.905,71.562c-3.79,1.747 -7.636,3.38 -11.425,4.901c-18.525,-47.278 -29.069,-102.061 -28.983,-160.389c0.105,-70.819 15.858,-136.245 42.445,-189.447c1.92,0.794 3.841,1.588 5.761,2.439Z" style="fill:#f0534a;"/><path id="path29" d="M693.305,212.086c-17.634,-0.026 -31.954,14.252 -31.98,31.886c-0.026,17.634 14.252,31.898 31.886,31.924c17.634,0.027 31.898,-14.195 31.924,-31.829c0.026,-17.634 -14.196,-31.955 -31.83,-31.981Z" style="fill:#fff;"/><path id="path31" d="M694.802,231.87c-9.552,-0.014 -17.25,7.718 -17.264,17.213c-0.014,9.552 7.661,17.25 17.213,17.264c9.495,0.014 17.25,-7.661 17.264,-17.213c0.014,-9.495 -7.718,-17.25 -17.213,-17.264Z"/><path id="path33" d="M696.476,246.681c-4.07,-0.006 -7.409,3.267 -7.415,7.336c-0.006,4.07 3.324,7.409 7.393,7.415c4.069,0.006 7.352,-3.324 7.358,-7.393c0.006,-4.069 -3.267,-7.352 -7.336,-7.358Z" style="fill:#fff;"/><path id="path35" d="M531.482,103.499c-2.698,-10.348 -8.392,-20.36 -17.648,-28.795c-13.66,-12.511 -34.954,-21.642 -55.917,-25.291c-20.963,-3.704 -41.709,-1.87 -60.417,-1.728c-18.708,0.142 -35.436,-1.353 -53.907,-8.332c-18.472,-6.979 -38.744,-19.443 -45.694,-20.301c-6.894,-0.858 -0.58,9.833 8.168,18.55c8.747,8.66 19.928,15.233 33.147,19.831c13.275,4.541 28.645,7.107 28.189,9.593c-0.399,2.487 -16.511,5.006 -31.148,4.024c-14.637,-0.926 -27.687,-5.241 -36.328,-9.267c-8.642,-3.969 -12.876,-7.649 -19.763,-13.085c-6.887,-5.493 -16.428,-12.798 -19.426,-10.994c-2.998,1.748 0.49,12.548 3.7,20.127c3.267,7.578 6.2,11.878 11.111,16.011c4.854,4.077 11.688,7.987 23.157,10.943c11.525,2.956 27.687,5.071 30.001,7.109c2.314,2.038 -9.162,4.056 -26.737,2.448c-17.576,-1.609 -41.249,-6.9 -43.742,-2.948c-2.549,3.896 16.139,17.036 34.044,25.315c17.904,8.278 35.081,11.695 51.468,14.262c16.386,2.625 31.927,4.343 48.311,8.663c2.542,0.682 5.141,1.421 7.683,2.272c38.633,-20.233 80.705,-34.527 124.23,-37.966c2.543,-0.166 5.031,-0.332 7.518,-0.441Zm-10.199,398.729c-4.539,11.297 -11.396,23.552 -21.584,33.541c-14.83,14.447 -36.66,23.966 -53.623,28.971c-16.964,5.005 -29.06,5.44 -45.955,2.532c-16.838,-2.851 -38.589,-9.044 -43.614,-12.216c-4.969,-3.173 6.73,-3.381 19.845,-4.718c13.058,-1.281 27.53,-3.633 28.381,-5.554c0.851,-1.92 -11.864,-3.465 -25.311,-6.707c-13.39,-3.241 -27.513,-8.292 -26.888,-10.1c0.624,-1.808 15.995,-0.428 32.612,-0.178c16.616,0.251 34.478,-0.627 31.713,-4.192c-2.707,-3.508 -26.041,-9.703 -29.314,-13.155c-3.273,-3.51 13.458,-4.276 27.419,-4.877c14.018,-0.601 25.266,-1.037 38.779,-4.408c3.845,-1.011 7.916,-2.192 12.044,-3.656c15.709,2.737 31.588,4.343 47.526,4.649c2.657,0.06 5.313,0.064 7.97,0.068Z" style="fill:#f63;"/><path id="path37" d="M213.228,288.863c-1.217,-17.41 -6.276,-36.408 -19.757,-54.684c-13.424,-18.275 -35.271,-35.829 -57.402,-52.704c-22.187,-16.876 -44.715,-33.074 -61.87,-50.733c-17.156,-17.66 -28.94,-36.781 -35.557,-33.852c-6.617,2.93 -8.011,27.966 -6.687,49.728c1.381,21.705 5.423,40.136 13.032,54.504c7.609,14.367 18.728,24.613 16.465,25.967c-2.263,1.353 -17.964,-6.188 -28.072,-12.307c-10.164,-6.175 -14.679,-10.986 -13.897,-4.711c0.782,6.274 6.917,23.578 18.369,38.63c11.451,14.994 28.275,27.792 42.504,36.687c14.23,8.895 25.809,13.942 21.958,19.475c-3.909,5.59 -23.247,11.722 -37.392,22.044c-14.089,10.322 -22.984,24.891 -27.356,37.941c-4.314,13.106 -4.106,24.692 -1.279,24.131c2.827,-0.561 8.328,-13.269 16.424,-22.639c8.097,-9.314 18.787,-15.176 19.346,-10.767c0.559,4.466 -9.015,19.203 -16.327,33.661c-7.313,14.459 -12.307,28.524 -14.763,45.816c-2.4,17.348 -2.204,37.808 -1.662,53.634c0.541,15.827 1.429,26.962 6.124,24.708c4.694,-2.31 13.139,-17.953 30.798,-34.657c17.658,-16.704 44.531,-34.411 66.377,-54.104c21.902,-19.636 38.777,-41.258 48.972,-55.995c10.196,-14.793 13.768,-22.756 16.894,-34.621c3.127,-11.921 5.92,-27.742 4.758,-45.152Z" style="fill:#f63;"/><path id="path39" d="M467.983,160.32c-41.672,11.129 -84.938,30.62 -126.794,52.036c-34.22,17.527 -67.482,36.298 -100.574,55.296c5.887,-6.208 13.359,-13.375 22.81,-21.952c29.429,-26.464 78.151,-65.955 125.441,-92.845c47.234,-26.946 93.036,-41.178 135.487,-44.563c38.89,-3.051 74.997,3.05 110.979,17.29c-3.572,7.06 -6.86,14.233 -9.923,21.576c-11.643,-0.47 -23.342,-0.657 -34.928,-0.617c-40.751,0.052 -80.827,2.706 -122.498,13.779Z" style="fill:#db3b33;"/><path id="path41" d="M366.628,399.134c47.73,19.626 104.856,29.997 159.006,26.856c26.51,-1.487 52.347,-6.253 76.773,-12.829c4.714,22.332 11.182,44.328 19.459,65.478l0,0.057c-36.25,14.076 -72.601,19.843 -108.49,19.112c-40.918,-0.852 -81.203,-10.237 -118.145,-24.761c-36.999,-14.524 -70.655,-34.129 -98.031,-58.756c-27.375,-24.626 -48.526,-54.217 -61.326,-74.301c-11.053,-17.198 -15.955,-27.379 -15.318,-37.495c8.693,7.191 17.838,14.609 27.492,22.309c32.347,25.765 70.794,54.703 118.58,74.33Z" style="fill:#db3b33;"/><path id="path43" d="M625.937,477.063c-7.995,-20.416 -14.519,-42.185 -19.289,-65.083c23.917,-6.69 46.481,-15.135 67.067,-23.978c42.7,-18.362 76.867,-38.602 106.271,-47.997c13.119,-4.22 25.33,-6.236 36.975,-7.067c-0.061,2.374 -0.742,4.747 -2.101,6.553c-3.341,4.348 -10.635,5.919 -20.312,14.439c-9.678,8.52 -21.739,23.989 -48.281,46.67c-26.597,22.738 -67.562,52.746 -108.905,71.562c-3.79,1.747 -7.636,3.38 -11.425,4.901Z" style="fill:#ec4038;"/><g><path id="path45" d="M517.35,104.551c0.634,-8.42 -3.878,-14.87 -12.573,-20.422c-11.181,-7.081 -29.259,-12.647 -44.515,-15.439c-15.199,-2.848 -27.634,-2.867 -40.18,-3.564c-12.603,-0.697 -25.318,-2.072 -27.75,-0.832c-2.375,1.24 5.588,5.152 17.962,7.77c12.317,2.618 29.045,3.999 29.211,6.091c0.167,2.035 -16.228,4.723 -31.151,5.945c-14.866,1.221 -28.317,0.975 -38.207,0.339c-9.89,-0.637 -16.275,-1.664 -18.141,-1.101c-1.923,0.562 0.73,2.77 4.909,5.037c4.236,2.267 9.997,4.65 19.885,6.586c9.832,1.88 23.677,3.257 34.245,4.12c10.511,0.864 17.689,1.213 14.634,3.243c-2.999,2.087 -16.23,5.798 -33.865,6.733c-17.636,0.934 -39.676,-0.907 -42.278,0.841c-2.546,1.805 14.402,7.143 23.892,10.322c9.491,3.123 11.581,4.03 15.929,6.467c4.292,2.437 10.843,6.29 16.373,12.119c34.955,-17.582 72.672,-30.186 111.62,-34.255Z" style="fill:#f93;"/><path id="path47" d="M473.416,498.766c-6.619,3.947 -13.69,7.836 -20.419,10.369c-12.611,4.842 -24.028,4.882 -24.708,5.616c-0.622,0.734 9.493,2.162 15.426,2.962c5.99,0.856 7.798,1.085 11.189,0.864c3.392,-0.278 8.367,-1.005 6.16,0.97c-2.264,1.918 -11.653,6.596 -19.005,9.467c-7.352,2.928 -12.61,4.051 -8.654,4.622c4.012,0.628 17.237,0.704 29.9,-1.256c12.664,-2.016 24.765,-6.011 35.286,-11.647c7.692,-4.058 14.539,-8.965 21.047,-14.664c0.567,-1.299 1.134,-2.598 1.645,-3.841c-2.657,-0.004 -5.313,-0.008 -7.97,-0.068c-13.338,-0.302 -26.675,-1.453 -39.897,-3.394Z" style="fill:#f93;"/><path id="path49" d="M211.104,273.317c-15.911,-18.958 -37.41,-42.615 -56.883,-60.221c-22.972,-20.72 -43.075,-33.015 -58.662,-41.742c-15.586,-8.783 -26.6,-13.886 -25.473,-11.567c1.127,2.319 14.451,12.173 30.54,24.97c16.146,12.854 35.17,28.651 37.365,34.871c2.195,6.221 -12.382,2.751 -28.591,-5.468c-16.152,-8.276 -34.05,-21.415 -45.162,-36.013c-11.113,-14.542 -15.554,-30.6 -17.363,-30.829c-1.808,-0.229 -1.04,15.372 7.244,31.775c8.284,16.459 24.084,33.777 36.105,45.664c12.078,11.831 20.377,18.23 21.163,21.509c0.786,3.336 -5.94,3.552 -13.344,3.371c-7.403,-0.18 -15.485,-0.757 -24.863,-3.767c-9.377,-2.953 -20.052,-8.338 -20.281,-5.851c-0.23,2.43 9.985,12.675 32.187,19.151c22.146,6.476 56.28,9.127 82.891,15.722c18.871,4.663 33.952,11.241 45.415,17.928c-0.054,-1.3 -0.109,-2.6 -0.164,-3.957c-0.388,-5.031 -1.058,-10.232 -2.124,-15.546Zm1.239,41.148c-9.334,5.299 -21.493,10.537 -36.589,14.245c-21.768,5.281 -49.636,7.387 -67.786,12.617c-18.094,5.229 -26.471,13.582 -26.305,15.56c0.167,1.979 8.934,-2.36 16.568,-4.779c7.69,-2.363 14.303,-2.862 20.351,-2.966c6.048,-0.104 11.53,0.074 10.848,2.786c-0.626,2.655 -7.473,7.845 -17.321,17.495c-9.849,9.65 -22.813,23.761 -29.615,37.202c-6.802,13.386 -7.443,26.158 -5.973,25.934c1.47,-0.167 5.106,-13.274 14.28,-25.13c9.117,-11.912 23.715,-22.573 36.951,-29.279c13.292,-6.706 25.165,-9.514 23.349,-4.43c-1.816,5.084 -17.378,17.947 -30.563,28.384c-13.241,10.436 -24.104,18.446 -25.068,20.31c-0.907,1.92 8.142,-2.249 20.87,-9.352c12.727,-7.046 29.189,-17.082 47.978,-33.953c15.111,-13.599 31.755,-31.604 44.55,-46.619c1.365,-5.368 2.617,-11.413 3.475,-18.025Z" style="fill:#f93;"/></g><path id="path51" d="M544.693,265.559c-12.646,-9.457 -30.605,-19.544 -51.507,-26.131c-20.959,-6.644 -44.862,-9.845 -52.836,-6.352c-7.975,3.492 -0.021,13.79 5.789,21.655c5.81,7.809 9.419,13.296 3.023,19.787c-6.34,6.49 -22.742,13.926 -27.212,17.819c-4.415,3.837 3.102,4.074 10.223,4.311c7.178,0.237 14.016,0.473 9.594,10.075c-4.48,9.545 -20.22,28.399 -15.541,36.94c4.622,8.542 29.662,6.77 50.586,-1.225c20.868,-7.994 37.619,-22.213 45.48,-25.875c7.862,-3.718 6.835,3.119 3.773,9.332c-3.004,6.212 -8.043,11.744 -2.899,11.017c5.145,-0.728 20.359,-7.77 30.206,-16.177c9.79,-8.407 14.1,-18.178 12.644,-27.506c-1.455,-9.328 -8.733,-18.212 -21.323,-27.67Z" style="fill:#ba362f;"/><path id="path53" d="M562.864,284.407c-10.951,-9.342 -31.902,-20.677 -49.3,-27.654c-17.624,-7.091 -31.637,-9.712 -32.656,-8.357c-1.019,1.355 10.898,6.742 19.538,11.955c8.64,5.156 14.002,10.194 8.741,13.182c-5.204,3.044 -21.031,4.038 -31.094,5.492c-10.119,1.455 -14.417,3.37 -11.197,4.336c3.277,0.966 14.072,0.982 25.659,0.829c11.643,-0.152 24.021,-0.473 25.148,1.733c1.127,2.149 -8.997,6.769 -20.084,13.026c-11.087,6.257 -23.193,14.096 -23.196,15.791c-0.002,1.696 12.099,-2.695 20.356,-5.735c8.199,-2.983 12.667,-4.559 20.866,-7.147c8.199,-2.644 20.13,-6.243 25.441,-4.992c5.311,1.251 3.889,7.41 -0.028,18.99c-1.703,4.972 -3.803,10.903 -5.45,16.326c5.939,-2.986 12.557,-6.989 17.764,-11.447c9.79,-8.407 14.1,-18.178 12.644,-27.506c-0.447,-2.996 -1.517,-5.88 -3.152,-8.822Z" style="fill:#cc3b33;"/></g></g></svg>